<?xml version="1.0" standalone="no"?>
<!DOCTYPE svg PUBLIC "-//W3C//DTD SVG 20010904//EN"
 "http://www.w3.org/TR/2001/REC-SVG-20010904/DTD/svg10.dtd">
<svg version="1.0" xmlns="http://www.w3.org/2000/svg"
 width="512.000000pt" height="512.000000pt" viewBox="0 0 512.000000 512.000000"
 preserveAspectRatio="xMidYMid meet">

<g transform="translate(0.000000,512.000000) scale(0.100000,-0.100000)"
fill="#ffffff" stroke="none">
<path d="M842 4950 c-12 -5 -27 -21 -32 -35 -6 -17 -10 -354 -10 -911 l0 -884
-135 0 c-73 0 -158 -5 -187 -11 -153 -33 -274 -154 -307 -307 -16 -75 -16
-2249 0 -2324 23 -109 105 -220 197 -267 104 -53 21 -51 1869 -51 1229 0 1727
3 1765 11 159 34 279 160 309 324 5 33 155 584 331 1225 l321 1164 -12 71
c-33 197 -189 359 -380 395 -30 5 -170 10 -312 10 l-259 0 0 605 c0 421 -3
611 -11 628 -18 39 -50 47 -184 47 l-125 0 0 125 c0 134 -8 166 -47 184 -30
14 -2756 15 -2791 1z m2678 -1190 l0 -1040 -782 0 -782 0 -201 200 -201 200
-297 0 -297 0 0 840 0 840 1280 0 1280 0 0 -1040z m320 -160 l0 -880 -80 0
-80 0 0 880 0 880 80 0 80 0 0 -880z m690 -410 c148 -28 262 -153 261 -287 -1
-37 -149 -583 -150 -552 -2 43 -36 123 -71 168 -49 62 -111 99 -190 114 l-60
12 0 277 0 278 79 0 c43 0 102 -5 131 -10z m-2845 -430 l200 -200 1017 0 c697
0 1033 -3 1068 -11 66 -14 127 -62 159 -124 l26 -49 0 -936 0 -935 -23 -47
c-26 -52 -68 -92 -122 -117 -31 -14 -188 -16 -1567 -19 l-1532 -2 -26 27 c-15
16 -39 53 -54 83 l-26 55 0 1155 0 1155 22 47 c12 26 34 63 50 83 l28 35 290
0 290 0 200 -200z"/>
<path d="M1684 4631 c-49 -12 -134 -63 -160 -94 -14 -17 -37 -53 -52 -81 -23
-46 -26 -64 -30 -187 -5 -151 7 -216 53 -283 32 -47 32 -90 0 -121 -21 -22
-33 -25 -96 -25 -102 0 -145 -16 -204 -75 -66 -65 -75 -99 -75 -269 l0 -136
80 0 80 0 0 134 c0 176 2 178 131 187 129 8 197 46 242 134 15 29 15 29 107
30 l92 0 18 -35 c43 -84 112 -121 239 -129 129 -9 131 -11 131 -187 l0 -134
80 0 80 0 0 136 c0 170 -9 204 -75 269 -59 59 -102 75 -204 75 -63 0 -75 3
-96 25 -32 31 -32 74 0 121 45 66 57 131 53 277 -3 109 -7 140 -26 180 -53
117 -148 185 -269 192 -38 2 -82 1 -99 -4z m164 -178 c62 -46 67 -62 67 -213
0 -124 -2 -141 -21 -166 -39 -53 -71 -69 -134 -69 -63 0 -95 16 -134 69 -18
23 -22 45 -24 138 -2 60 -1 125 2 144 8 41 50 92 91 110 40 19 120 12 153 -13z"/>
<path d="M2585 4615 c-25 -24 -25 -26 -25 -215 0 -189 0 -191 25 -215 l24 -25
351 0 351 0 24 25 c25 24 25 26 25 215 0 189 0 191 -25 215 l-24 25 -351 0
-351 0 -24 -25z m615 -215 l0 -80 -240 0 -240 0 0 80 0 80 240 0 240 0 0 -80z"/>
<path d="M2560 3920 l0 -80 400 0 400 0 0 80 0 80 -400 0 -400 0 0 -80z"/>
<path d="M2560 3600 l0 -80 400 0 400 0 0 80 0 80 -400 0 -400 0 0 -80z"/>
<path d="M2560 3280 l0 -80 400 0 400 0 0 80 0 80 -400 0 -400 0 0 -80z"/>
<path d="M2560 2960 l0 -80 400 0 400 0 0 80 0 80 -400 0 -400 0 0 -80z"/>
<path d="M1862 2297 c-21 -22 -22 -31 -22 -240 l0 -217 -218 0 c-215 0 -219 0
-240 -23 -22 -23 -22 -28 -22 -378 l0 -356 23 -21 c22 -21 31 -22 240 -22
l217 0 0 -218 c0 -215 0 -219 23 -240 23 -22 28 -22 378 -22 l356 0 21 23 c21
22 22 31 22 240 l0 217 218 0 c215 0 219 0 240 23 22 23 22 28 22 378 l0 356
-23 21 c-22 21 -31 22 -240 22 l-217 0 0 218 c0 215 0 219 -23 240 -23 22 -28
22 -378 22 l-356 0 -21 -23z m618 -352 c0 -216 0 -216 25 -240 24 -25 24 -25
240 -25 l215 0 0 -240 0 -240 -215 0 c-288 0 -265 23 -265 -265 l0 -215 -240
0 -240 0 0 215 c0 288 23 265 -265 265 l-215 0 0 240 0 240 215 0 c288 0 265
-23 265 265 l0 215 240 0 240 0 0 -215z"/>
</g>
</svg>
